<?xml version="1.0" standalone="no"?><svg xmlns="http://www.w3.org/2000/svg" viewBox="0 0 1440 320"><path fill="#0099ff" fill-opacity="1" d="M0,224L20,234.7C40,245,80,267,120,272C160,277,200,267,240,256C280,245,320,235,360,208C400,181,440,139,480,117.3C520,96,560,96,600,128C640,160,680,224,720,261.3C760,299,800,309,840,293.3C880,277,920,235,960,192C1000,149,1040,107,1080,74.7C1120,43,1160,21,1200,26.7C1240,32,1280,64,1320,74.7C1360,85,1400,75,1420,69.3L1440,64L1440,320L1420,320C1400,320,1360,320,1320,320C1280,320,1240,320,1200,320C1160,320,1120,320,1080,320C1040,320,1000,320,960,320C920,320,880,320,840,320C800,320,760,320,720,320C680,320,640,320,600,320C560,320,520,320,480,320C440,320,400,320,360,320C320,320,280,320,240,320C200,320,160,320,120,320C80,320,40,320,20,320L0,320Z"></path></svg>