<?xml version="1.0" standalone="no"?><svg xmlns="http://www.w3.org/2000/svg" viewBox="0 0 1440 320"><path fill="#0099ff" fill-opacity="1" d="M0,224L20,186.7C40,149,80,75,120,58.7C160,43,200,85,240,90.7C280,96,320,64,360,42.7C400,21,440,11,480,37.3C520,64,560,128,600,181.3C640,235,680,277,720,288C760,299,800,277,840,261.3C880,245,920,235,960,224C1000,213,1040,203,1080,208C1120,213,1160,235,1200,229.3C1240,224,1280,192,1320,165.3C1360,139,1400,117,1420,106.7L1440,96L1440,320L1420,320C1400,320,1360,320,1320,320C1280,320,1240,320,1200,320C1160,320,1120,320,1080,320C1040,320,1000,320,960,320C920,320,880,320,840,320C800,320,760,320,720,320C680,320,640,320,600,320C560,320,520,320,480,320C440,320,400,320,360,320C320,320,280,320,240,320C200,320,160,320,120,320C80,320,40,320,20,320L0,320Z"></path></svg>